<svg width="1600" height="900" viewBox="0 0 1600 900" fill="none" xmlns="http://www.w3.org/2000/svg">
  <defs><linearGradient id="bg4" x1="0" y1="0" x2="1600" y2="900"><stop stop-color="#0C1830"/><stop offset="1" stop-color="#13264B"/></linearGradient></defs>
  <rect width="1600" height="900" rx="44" fill="url(#bg4)"/>
  <rect x="60" y="60" width="1480" height="780" rx="36" fill="#111F3F" stroke="#2D4774" stroke-width="4"/>
  <rect x="160" y="240" width="280" height="180" rx="34" fill="#23375D"/>
  <rect x="190" y="200" width="320" height="180" rx="34" fill="#1B2E4F"/>
  <rect x="228" y="162" width="360" height="180" rx="34" fill="#162847"/>
  <circle cx="760" cy="342" r="138" fill="#A8673A"/>
  <circle cx="708" cy="236" r="40" fill="#A8673A"/>
  <circle cx="812" cy="236" r="40" fill="#A8673A"/>
  <circle cx="708" cy="236" r="22" fill="#E7C399"/>
  <circle cx="812" cy="236" r="22" fill="#E7C399"/>
  <ellipse cx="760" cy="354" rx="92" ry="80" fill="#C68853"/>
  <rect x="1020" y="194" width="360" height="260" rx="34" fill="#1B2E4F" stroke="#38537D" stroke-width="6"/>
  <rect x="1066" y="238" width="220" height="124" rx="26" fill="#9CD1FF" fill-opacity="0.18" stroke="#8CCBFF" stroke-width="6"/>
  <circle cx="1184" cy="476" r="76" fill="#324B78"/>
  <rect x="1040" y="602" width="172" height="52" rx="24" fill="#9D2C2C"/>
  <rect x="430" y="590" width="168" height="88" rx="26" fill="#324B78"/>
  <rect x="618" y="590" width="168" height="88" rx="26" fill="#324B78"/>
  <rect x="808" y="590" width="168" height="88" rx="26" fill="#324B78"/>
</svg>
