<svg width="1200" height="760" viewBox="0 0 1200 760" fill="none" xmlns="http://www.w3.org/2000/svg">
  <rect width="1200" height="760" fill="#101726"/>
  <rect x="56" y="56" width="1088" height="648" rx="36" fill="#162238" stroke="#273958" stroke-width="4"/>
  <ellipse cx="600" cy="620" rx="420" ry="42" fill="#08101D" fill-opacity="0.46"/>

  <rect x="128" y="336" width="230" height="60" rx="20" fill="#20314A"/>
  <rect x="148" y="280" width="220" height="76" rx="22" fill="#233652"/>
  <rect x="164" y="226" width="210" height="76" rx="22" fill="#26405F"/>

  <circle cx="516" cy="338" r="82" fill="#B57841"/>
  <circle cx="486" cy="302" r="26" fill="#B57841"/>
  <circle cx="548" cy="302" r="26" fill="#B57841"/>
  <circle cx="488" cy="332" r="10" fill="#2C1D13"/>
  <circle cx="544" cy="332" r="10" fill="#2C1D13"/>
  <ellipse cx="516" cy="360" rx="20" ry="16" fill="#E5C79B"/>
  <circle cx="516" cy="350" r="8" fill="#2C1D13"/>
  <circle cx="458" cy="424" r="24" fill="#B57841"/>
  <circle cx="574" cy="424" r="24" fill="#B57841"/>
  <ellipse cx="516" cy="450" rx="70" ry="82" fill="#B57841"/>

  <rect x="664" y="470" width="162" height="96" rx="26" fill="#324B71"/>
  <ellipse cx="744" cy="518" rx="64" ry="28" fill="#21344E"/>
  <ellipse cx="744" cy="510" rx="58" ry="22" fill="#7B653F"/>
  <circle cx="724" cy="506" r="8" fill="#8F764A"/>
  <circle cx="754" cy="514" r="8" fill="#8F764A"/>
  <circle cx="780" cy="502" r="8" fill="#8F764A"/>
  <rect x="862" y="462" width="60" height="24" rx="12" fill="#C7464B"/>
  <rect x="890" y="478" width="20" height="78" rx="10" fill="#C7464B"/>
  <rect x="952" y="332" width="164" height="66" rx="24" fill="#D8E7B0"/>
  <path d="M1018 362H1050" stroke="#F5FFF0" stroke-width="12" stroke-linecap="round"/>
  <path d="M1034 346V378" stroke="#F5FFF0" stroke-width="12" stroke-linecap="round"/>
  <rect x="952" y="430" width="52" height="82" rx="20" fill="#B3D8FF"/>
  <rect x="964" y="402" width="28" height="34" rx="10" fill="#F1F8FF"/>
  <rect x="1022" y="422" width="58" height="90" rx="20" fill="#F4F0DB"/>
  <rect x="1090" y="472" width="34" height="40" rx="12" fill="#D5D8E0"/>
  <rect x="864" y="220" width="242" height="86" rx="30" fill="#2A415F"/>
  <path d="M914 264L948 230L982 264L948 298L914 264Z" fill="#FFC972"/>
  <path d="M1008 270C1030 240 1064 226 1096 230C1082 260 1050 290 1008 270Z" fill="#7CE19B"/>
</svg>
