<svg width="1200" height="760" viewBox="0 0 1200 760" fill="none" xmlns="http://www.w3.org/2000/svg">
  <rect width="1200" height="760" fill="#101726"/>
  <rect x="60" y="60" width="1080" height="640" rx="34" fill="#162238" stroke="#273958" stroke-width="4"/>
  <circle cx="270" cy="280" r="68" fill="#FFC972"/>
  <rect x="216" y="352" width="108" height="170" rx="34" fill="#2B4060"/>
  <circle cx="470" cy="262" r="54" fill="#FFC972"/>
  <rect x="426" y="316" width="88" height="140" rx="28" fill="#314968"/>
  <circle cx="660" cy="280" r="68" fill="#FFC972"/>
  <rect x="606" y="352" width="108" height="170" rx="34" fill="#355176"/>
  <path d="M806 430C806 375 851 330 906 330H948C1003 330 1048 375 1048 430V472H806V430Z" fill="#2B4060"/>
  <circle cx="862" cy="302" r="30" fill="#C89E67"/>
  <circle cx="992" cy="302" r="30" fill="#C89E67"/>
  <text x="826" y="530" fill="#E8EEF7" font-family="Arial, sans-serif" font-size="40" font-weight="700">Pets + climate gear</text>
  <path d="M176 150L208 118L240 150L208 182L176 150Z" fill="#7BC6FF"/>
  <path d="M1020 148C1048 120 1092 120 1120 148C1092 176 1048 176 1020 148Z" fill="#F8D06A"/>
  <rect x="148" y="574" width="904" height="66" rx="22" fill="#1A2942"/>
  <text x="182" y="616" fill="#E8EEF7" font-family="Arial, sans-serif" font-size="30" font-weight="700">Plan for children, pets, weather, and comfort items the same way you plan for gear.</text>
</svg>
