<svg width="1600" height="900" viewBox="0 0 1600 900" fill="none" xmlns="http://www.w3.org/2000/svg">
  <defs>
    <linearGradient id="bg" x1="0" y1="0" x2="1600" y2="900" gradientUnits="userSpaceOnUse">
      <stop stop-color="#091326"/>
      <stop offset="1" stop-color="#13264B"/>
    </linearGradient>
    <linearGradient id="bag" x1="0" y1="0" x2="1" y2="1">
      <stop stop-color="#1D2D4D"/>
      <stop offset="1" stop-color="#111827"/>
    </linearGradient>
  </defs>
  <rect width="1600" height="900" rx="44" fill="url(#bg)"/>
  <rect x="74" y="70" width="1452" height="760" rx="36" fill="#0F1C3B" stroke="#2A3F6C" stroke-width="4"/>
  <rect x="560" y="170" width="360" height="430" rx="34" fill="url(#bag)" stroke="#324B78" stroke-width="6"/>
  <rect x="620" y="110" width="240" height="110" rx="26" fill="#192844"/>
  <rect x="632" y="122" width="216" height="86" rx="22" fill="#23375D"/>
  <rect x="640" y="292" width="200" height="74" rx="20" fill="#1B2E4F"/>
  <rect x="640" y="390" width="200" height="74" rx="20" fill="#1B2E4F"/>
  <rect x="640" y="488" width="200" height="74" rx="20" fill="#1B2E4F"/>
  <rect x="470" y="220" width="92" height="300" rx="26" fill="#15243F"/>
  <rect x="918" y="220" width="92" height="300" rx="26" fill="#15243F"/>
  <path d="M260 246c0-28 22-50 50-50h22c28 0 50 22 50 50v244c0 28-22 50-50 50h-22c-28 0-50-22-50-50V246Z" fill="#83CFFF" fill-opacity="0.22" stroke="#7DD3A7" stroke-width="6"/>
  <path d="M396 220c0-24 19-43 43-43h18c24 0 43 19 43 43v307c0 24-19 43-43 43h-18c-24 0-43-19-43-43V220Z" fill="#9AE6FF" fill-opacity="0.2" stroke="#8CCBFF" stroke-width="6"/>
  <path d="M1110 250c0-24 20-44 44-44h234c24 0 44 20 44 44v208c0 24-20 44-44 44h-234c-24 0-44-20-44-44V250Z" fill="#172A48" stroke="#2D4774" stroke-width="6"/>
  <rect x="1160" y="278" width="136" height="78" rx="18" fill="#9D2C2C"/>
  <rect x="1222" y="296" width="14" height="40" rx="7" fill="#F5F7F8"/>
  <rect x="1208" y="310" width="42" height="14" rx="7" fill="#F5F7F8"/>
  <rect x="1136" y="520" width="250" height="110" rx="30" fill="#1E293B" stroke="#384F79" stroke-width="6"/>
  <ellipse cx="1260" cy="585" rx="74" ry="74" fill="#FFD067" fill-opacity="0.18"/>
  <rect x="1230" y="542" width="60" height="100" rx="18" fill="#24395E"/>
  <circle cx="1260" cy="550" r="40" fill="#FFD067"/>
  <rect x="160" y="596" width="280" height="126" rx="28" fill="#172A48" stroke="#2D4774" stroke-width="6"/>
  <rect x="192" y="628" width="108" height="54" rx="14" fill="#7DD3A7" fill-opacity="0.15"/>
  <rect x="224" y="644" width="16" height="22" rx="6" fill="#7DD3A7"/>
  <rect x="212" y="652" width="40" height="8" rx="4" fill="#7DD3A7"/>
  <rect x="330" y="620" width="74" height="74" rx="20" fill="#223B63"/>
  <rect x="1010" y="574" width="90" height="34" rx="12" fill="#415A82"/>
  <rect x="1026" y="620" width="58" height="58" rx="14" fill="#2A436B"/>
  <rect x="1078" y="620" width="32" height="58" rx="14" fill="#20324F"/>
  <circle cx="220" cy="752" r="30" fill="#C9CDD5"/>
  <circle cx="298" cy="752" r="30" fill="#9DA7B8"/>
  <circle cx="376" cy="752" r="30" fill="#69768F"/>
</svg>
