<svg width="1600" height="900" viewBox="0 0 1600 900" fill="none" xmlns="http://www.w3.org/2000/svg">
  <rect width="1600" height="900" fill="#0B1220"/>
  <rect x="72" y="72" width="1456" height="756" rx="36" fill="#111B2E" stroke="#22304A" stroke-width="4"/>
  <rect x="170" y="170" width="370" height="520" rx="32" fill="#1D2A3F" stroke="#6DD3A0" stroke-width="6"/>
  <rect x="250" y="250" width="210" height="290" rx="24" fill="#24364F"/>
  <rect x="290" y="200" width="130" height="55" rx="20" fill="#24364F"/>
  <path d="M330 360H380" stroke="#6DD3A0" stroke-width="18" stroke-linecap="round"/>
  <path d="M355 335V385" stroke="#6DD3A0" stroke-width="18" stroke-linecap="round"/>
  <rect x="610" y="170" width="270" height="190" rx="28" fill="#1D2A3F" stroke="#4AA9FF" stroke-width="5"/>
  <path d="M675 260C675 233 697 211 724 211H766C793 211 815 233 815 260V290H675V260Z" fill="#2A4766"/>
  <rect x="664" y="290" width="162" height="24" rx="12" fill="#4AA9FF" fill-opacity="0.6"/>
  <rect x="936" y="170" width="340" height="190" rx="28" fill="#1D2A3F" stroke="#F5C96A" stroke-width="5"/>
  <circle cx="1042" cy="260" r="58" fill="#263851"/>
  <circle cx="1042" cy="260" r="34" fill="#F5C96A"/>
  <rect x="1118" y="214" width="102" height="92" rx="18" fill="#263851"/>
  <path d="M1150 242H1188" stroke="#F5C96A" stroke-width="10" stroke-linecap="round"/>
  <path d="M1169 223V261" stroke="#F5C96A" stroke-width="10" stroke-linecap="round"/>
  <rect x="610" y="404" width="320" height="256" rx="28" fill="#1D2A3F" stroke="#D98FFF" stroke-width="5"/>
  <rect x="660" y="454" width="220" height="52" rx="18" fill="#314564"/>
  <rect x="660" y="530" width="148" height="32" rx="12" fill="#314564"/>
  <rect x="820" y="530" width="60" height="32" rx="12" fill="#D98FFF" fill-opacity="0.7"/>
  <rect x="970" y="404" width="306" height="256" rx="28" fill="#1D2A3F" stroke="#FF8F8F" stroke-width="5"/>
  <rect x="1040" y="456" width="170" height="122" rx="24" fill="#263851"/>
  <path d="M1125 490H1125.2" stroke="#FF8F8F" stroke-width="20" stroke-linecap="round"/>
  <path d="M1090 520H1160" stroke="#FF8F8F" stroke-width="14" stroke-linecap="round"/>
  <path d="M1125 485V555" stroke="#FF8F8F" stroke-width="14" stroke-linecap="round"/>
  <text x="170" y="760" fill="#E8EEF7" font-family="Arial, sans-serif" font-size="54" font-weight="700">72-hour kit essentials</text>
  <text x="170" y="808" fill="#94A7C6" font-family="Arial, sans-serif" font-size="28">Water, food, power, first aid, documents, clothing, and gear staged to move.</text>
</svg>
