<svg width="1200" height="760" viewBox="0 0 1200 760" fill="none" xmlns="http://www.w3.org/2000/svg">
  <rect width="1200" height="760" fill="#0F1523"/>
  <rect x="56" y="56" width="1088" height="648" rx="36" fill="#141E31" stroke="#24324A" stroke-width="4"/>
  <ellipse cx="606" cy="618" rx="420" ry="42" fill="#08101D" fill-opacity="0.48"/>

  <circle cx="238" cy="308" r="106" fill="#223654"/>
  <circle cx="238" cy="308" r="60" fill="#F8D06A"/>
  <rect x="194" y="364" width="88" height="132" rx="20" fill="#20304B"/>
  <rect x="154" y="524" width="136" height="62" rx="16" fill="#18253D"/>

  <rect x="374" y="210" width="208" height="154" rx="24" fill="#1A2942" stroke="#63B8FF" stroke-width="4"/>
  <rect x="414" y="252" width="130" height="24" rx="12" fill="#30496A"/>
  <rect x="414" y="292" width="102" height="18" rx="9" fill="#63B8FF" fill-opacity="0.7"/>
  <rect x="392" y="520" width="116" height="72" rx="18" fill="#23344F"/>
  <rect x="404" y="502" width="18" height="18" rx="6" fill="#23344F"/>
  <path d="M420 548V572" stroke="#9FE7FF" stroke-width="8" stroke-linecap="round"/>
  <path d="M434 548V572" stroke="#9FE7FF" stroke-width="8" stroke-linecap="round"/>
  <rect x="530" y="534" width="20" height="48" rx="8" fill="#AEBACE"/>
  <rect x="556" y="530" width="16" height="54" rx="8" fill="#AEBACE"/>

  <rect x="638" y="206" width="174" height="224" rx="26" fill="#2E4B71" stroke="#FFD66E" stroke-width="4"/>
  <rect x="760" y="462" width="160" height="92" rx="18" fill="#1E2D47"/>
  <rect x="786" y="484" width="108" height="20" rx="10" fill="#496688"/>
  <rect x="786" y="516" width="74" height="20" rx="10" fill="#496688"/>
  <circle cx="724" cy="318" r="44" fill="#273B59"/>
  <circle cx="724" cy="318" r="26" fill="#FFD66E"/>

  <rect x="874" y="198" width="214" height="280" rx="28" fill="#CF474A" stroke="#FF9D9D" stroke-width="4"/>
  <rect x="940" y="256" width="82" height="142" rx="18" fill="#22324D" fill-opacity="0.5"/>
  <path d="M958 328H1004" stroke="#FFF4F4" stroke-width="14" stroke-linecap="round"/>
  <path d="M981 305V351" stroke="#FFF4F4" stroke-width="14" stroke-linecap="round"/>

  <rect x="882" y="532" width="48" height="84" rx="18" fill="#E0A43B"/>
  <rect x="892" y="500" width="28" height="36" rx="10" fill="#5F88C5"/>
  <rect x="944" y="522" width="52" height="94" rx="20" fill="#79C9AE"/>
  <rect x="954" y="488" width="32" height="38" rx="12" fill="#D2EEFF"/>
  <rect x="1012" y="546" width="112" height="26" rx="13" fill="#7C6B4A"/>
</svg>
