<svg width="1200" height="760" viewBox="0 0 1200 760" fill="none" xmlns="http://www.w3.org/2000/svg">
  <rect width="1200" height="760" fill="#0F1523"/>
  <rect x="60" y="60" width="1080" height="640" rx="34" fill="#141E31" stroke="#24324A" stroke-width="4"/>
  <circle cx="306" cy="274" r="118" fill="#243754"/>
  <circle cx="306" cy="274" r="70" fill="#F8D06A"/>
  <rect x="258" y="360" width="96" height="140" rx="24" fill="#22314B"/>
  <rect x="440" y="174" width="280" height="180" rx="26" fill="#19273F" stroke="#64B8FF" stroke-width="5"/>
  <rect x="490" y="224" width="180" height="34" rx="14" fill="#2D4568"/>
  <rect x="490" y="278" width="140" height="24" rx="12" fill="#64B8FF" fill-opacity="0.7"/>
  <rect x="796" y="154" width="252" height="386" rx="34" fill="#1B2942" stroke="#FF9090" stroke-width="5"/>
  <rect x="858" y="214" width="128" height="210" rx="22" fill="#243754"/>
  <path d="M922 258H922.2" stroke="#FF9090" stroke-width="18" stroke-linecap="round"/>
  <path d="M882 322H962" stroke="#FF9090" stroke-width="14" stroke-linecap="round"/>
  <path d="M922 282V362" stroke="#FF9090" stroke-width="14" stroke-linecap="round"/>
  <rect x="162" y="570" width="876" height="70" rx="22" fill="#18253D"/>
  <text x="192" y="614" fill="#E8EEF7" font-family="Arial, sans-serif" font-size="32" font-weight="700">Layer hands-free light, backup power, and first-aid where you can reach them fast.</text>
</svg>
