<svg width="1600" height="900" viewBox="0 0 1600 900" fill="none" xmlns="http://www.w3.org/2000/svg">
  <defs><linearGradient id="bg3" x1="0" y1="0" x2="1600" y2="900"><stop stop-color="#0B1830"/><stop offset="1" stop-color="#13284D"/></linearGradient></defs>
  <rect width="1600" height="900" rx="44" fill="url(#bg3)"/>
  <rect x="60" y="60" width="1480" height="780" rx="36" fill="#101E3D" stroke="#2D4774" stroke-width="4"/>
  <ellipse cx="360" cy="360" rx="150" ry="150" fill="#FFD067" fill-opacity="0.18"/>
  <rect x="290" y="260" width="140" height="210" rx="34" fill="#223B63"/>
  <circle cx="360" cy="250" r="86" fill="#FFD067"/>
  <rect x="520" y="282" width="290" height="164" rx="28" fill="#1B2E4F" stroke="#4A90D9" stroke-width="6"/>
  <rect x="566" y="328" width="198" height="34" rx="14" fill="#415A82"/>
  <rect x="566" y="384" width="134" height="24" rx="12" fill="#6AAEF0"/>
  <rect x="920" y="236" width="270" height="220" rx="34" fill="#9D2C2C"/>
  <rect x="1040" y="286" width="28" height="118" rx="14" fill="#F5F7F8"/>
  <rect x="994" y="330" width="120" height="28" rx="14" fill="#F5F7F8"/>
  <rect x="1260" y="268" width="96" height="168" rx="24" fill="#2B436A"/>
  <rect x="1284" y="208" width="48" height="76" rx="16" fill="#3B82F6"/>
  <rect x="1220" y="506" width="104" height="104" rx="24" fill="#1B2E4F" stroke="#38537D" stroke-width="6"/>
  <rect x="190" y="570" width="186" height="72" rx="24" fill="#314A6B"/>
  <rect x="420" y="570" width="186" height="72" rx="24" fill="#314A6B"/>
  <rect x="650" y="570" width="186" height="72" rx="24" fill="#314A6B"/>
</svg>
