<svg width="1200" height="760" viewBox="0 0 1200 760" fill="none" xmlns="http://www.w3.org/2000/svg">
  <rect width="1200" height="760" fill="#0E1628"/>
  <rect x="60" y="60" width="1080" height="640" rx="34" fill="#121E34" stroke="#243553" stroke-width="4"/>
  <rect x="132" y="160" width="210" height="360" rx="28" fill="#233857" stroke="#59C7FF" stroke-width="5"/>
  <rect x="172" y="120" width="130" height="60" rx="18" fill="#233857"/>
  <path d="M237 255C237 219 266 190 302 190H172C208 190 237 219 237 255V420Z" fill="#1A2A40" opacity="0.6"/>
  <path d="M180 415C220 390 260 390 300 415" stroke="#8BE2FF" stroke-width="8" stroke-linecap="round"/>
  <path d="M180 450C220 425 260 425 300 450" stroke="#8BE2FF" stroke-width="8" stroke-linecap="round"/>
  <rect x="410" y="172" width="300" height="160" rx="26" fill="#1D2C46" stroke="#F7D06A" stroke-width="5"/>
  <circle cx="500" cy="252" r="45" fill="#F7D06A" fill-opacity="0.9"/>
  <rect x="570" y="212" width="92" height="26" rx="13" fill="#334A6B"/>
  <rect x="570" y="254" width="120" height="26" rx="13" fill="#334A6B"/>
  <rect x="780" y="172" width="260" height="160" rx="26" fill="#1D2C46" stroke="#7AE08D" stroke-width="5"/>
  <path d="M845 222C845 198 864 179 888 179H932C956 179 975 198 975 222V282H845V222Z" fill="#2B3F5F"/>
  <rect x="832" y="282" width="156" height="22" rx="11" fill="#7AE08D" fill-opacity="0.75"/>
  <rect x="130" y="560" width="910" height="74" rx="24" fill="#16243C"/>
  <text x="160" y="607" fill="#E8EEF7" font-family="Arial, sans-serif" font-size="34" font-weight="700">Stage ready-to-use water and shelf-stable food first.</text>
</svg>
