<svg width="1600" height="900" viewBox="0 0 1600 900" fill="none" xmlns="http://www.w3.org/2000/svg">
  <defs>
    <linearGradient id="bg2" x1="0" y1="0" x2="1600" y2="900" gradientUnits="userSpaceOnUse">
      <stop stop-color="#0C1830"/>
      <stop offset="1" stop-color="#112547"/>
    </linearGradient>
  </defs>
  <rect width="1600" height="900" rx="44" fill="url(#bg2)"/>
  <rect x="60" y="60" width="1480" height="780" rx="36" fill="#111F3F" stroke="#2D4774" stroke-width="4"/>
  <g stroke="#8CCBFF" stroke-width="6">
    <rect x="150" y="180" width="120" height="360" rx="34" fill="#8CCBFF" fill-opacity="0.18"/>
    <rect x="298" y="150" width="140" height="390" rx="36" fill="#8CCBFF" fill-opacity="0.18"/>
    <rect x="472" y="190" width="120" height="350" rx="34" fill="#8CCBFF" fill-opacity="0.18"/>
  </g>
  <rect x="650" y="212" width="210" height="138" rx="24" fill="#D3A73C"/>
  <rect x="890" y="170" width="220" height="178" rx="28" fill="#3A6EA5"/>
  <rect x="648" y="386" width="186" height="124" rx="20" fill="#27588F"/>
  <rect x="874" y="386" width="128" height="124" rx="20" fill="#314A6B"/>
  <rect x="1028" y="386" width="128" height="124" rx="20" fill="#314A6B"/>
  <rect x="1188" y="386" width="128" height="124" rx="20" fill="#314A6B"/>
  <rect x="650" y="560" width="520" height="110" rx="26" fill="#1B2E4F" stroke="#38537D" stroke-width="6"/>
  <rect x="1248" y="196" width="140" height="140" rx="28" fill="#1B2E4F" stroke="#38537D" stroke-width="6"/>
  <circle cx="1318" cy="266" r="46" fill="#F2C46D"/>
  <rect x="1288" y="314" width="60" height="96" rx="18" fill="#2B436A"/>
  <circle cx="1278" cy="582" r="42" fill="#D1D5DB"/>
  <circle cx="1378" cy="582" r="42" fill="#9AA5B7"/>
</svg>
