<svg width="1600" height="900" viewBox="0 0 1600 900" fill="none" xmlns="http://www.w3.org/2000/svg">
  <defs>
    <linearGradient id="wbg" x1="0" y1="0" x2="1600" y2="900"><stop stop-color="#091426"/><stop offset="1" stop-color="#133055"/></linearGradient>
  </defs>
  <rect width="1600" height="900" rx="44" fill="url(#wbg)"/>
  <rect x="74" y="70" width="1452" height="760" rx="36" fill="#0F1C3B" stroke="#2A3F6C" stroke-width="4"/>
  <rect x="180" y="220" width="240" height="420" rx="44" fill="#9ADFFF" fill-opacity="0.2" stroke="#8CCBFF" stroke-width="8"/>
  <rect x="208" y="170" width="184" height="80" rx="24" fill="#2B436A"/>
  <rect x="470" y="260" width="210" height="360" rx="38" fill="#8CCBFF" fill-opacity="0.16" stroke="#7DD3A7" stroke-width="8"/>
  <rect x="740" y="240" width="250" height="390" rx="40" fill="#9ADFFF" fill-opacity="0.18" stroke="#8CCBFF" stroke-width="8"/>
  <rect x="778" y="196" width="174" height="70" rx="22" fill="#2B436A"/>
  <circle cx="1140" cy="342" r="126" fill="#8CCBFF" fill-opacity="0.16"/>
  <path d="M1136 226c46 72 92 132 92 198 0 66-56 122-122 122s-122-56-122-122c0-66 52-126 152-198Z" fill="#7DD3A7" fill-opacity="0.94"/>
  <rect x="1228" y="232" width="178" height="104" rx="26" fill="#1B2E4F" stroke="#38537D" stroke-width="6"/>
  <circle cx="1282" cy="284" r="20" fill="#F2C46D"/>
  <rect x="1318" y="262" width="52" height="44" rx="14" fill="#314A6B"/>
  <rect x="1228" y="494" width="190" height="120" rx="30" fill="#1B2E4F" stroke="#38537D" stroke-width="6"/>
  <rect x="1270" y="528" width="110" height="54" rx="18" fill="#314A6B"/>
</svg>
