<svg width="1600" height="900" viewBox="0 0 1600 900" fill="none" xmlns="http://www.w3.org/2000/svg">
  <defs><linearGradient id="w2" x1="0" y1="0" x2="1600" y2="900"><stop stop-color="#0B1730"/><stop offset="1" stop-color="#14345A"/></linearGradient></defs>
  <rect width="1600" height="900" rx="44" fill="url(#w2)"/>
  <rect x="60" y="60" width="1480" height="780" rx="36" fill="#111F3F" stroke="#2D4774" stroke-width="4"/>
  <rect x="170" y="150" width="1240" height="560" rx="34" fill="#0D1A34" stroke="#223A62" stroke-width="6"/>
  <rect x="210" y="242" width="1160" height="26" rx="13" fill="#223A62"/>
  <rect x="210" y="430" width="1160" height="26" rx="13" fill="#223A62"/>
  <rect x="260" y="286" width="144" height="110" rx="22" fill="#9ADFFF" fill-opacity="0.18" stroke="#8CCBFF" stroke-width="6"/>
  <rect x="430" y="286" width="144" height="110" rx="22" fill="#9ADFFF" fill-opacity="0.18" stroke="#8CCBFF" stroke-width="6"/>
  <rect x="642" y="306" width="188" height="88" rx="24" fill="#1B2E4F" stroke="#38537D" stroke-width="6"/>
  <rect x="904" y="286" width="168" height="110" rx="24" fill="#8CCBFF" fill-opacity="0.16" stroke="#7DD3A7" stroke-width="6"/>
  <rect x="1126" y="286" width="168" height="110" rx="24" fill="#8CCBFF" fill-opacity="0.16" stroke="#7DD3A7" stroke-width="6"/>
  <rect x="260" y="474" width="180" height="140" rx="26" fill="#8CCBFF" fill-opacity="0.18" stroke="#8CCBFF" stroke-width="6"/>
  <rect x="482" y="474" width="180" height="140" rx="26" fill="#8CCBFF" fill-opacity="0.18" stroke="#8CCBFF" stroke-width="6"/>
  <rect x="730" y="500" width="206" height="114" rx="26" fill="#1B2E4F" stroke="#38537D" stroke-width="6"/>
</svg>
