<svg width="1600" height="900" viewBox="0 0 1600 900" fill="none" xmlns="http://www.w3.org/2000/svg">
  <rect width="1600" height="900" rx="40" fill="#0B1220"/>
  <rect x="60" y="60" width="1480" height="780" rx="34" fill="#111A2E" stroke="#27344C" stroke-width="4"/>
  <rect x="220" y="180" width="1160" height="36" rx="18" fill="#394D6C"/>
  <rect x="220" y="430" width="1160" height="36" rx="18" fill="#394D6C"/>
  <rect x="220" y="680" width="1160" height="36" rx="18" fill="#394D6C"/>
  <rect x="260" y="220" width="180" height="170" rx="24" fill="#75C8F7" fill-opacity="0.16" stroke="#8DD9FF" stroke-width="8"/>
  <rect x="290" y="170" width="120" height="54" rx="14" fill="#DDEEFF" fill-opacity="0.28" stroke="#BFE8FF" stroke-width="8"/>
  <rect x="520" y="250" width="230" height="140" rx="26" fill="#172235" stroke="#33445E" stroke-width="8"/>
  <rect x="790" y="240" width="170" height="150" rx="22" fill="#7FD0FF" fill-opacity="0.14" stroke="#9AE2FF" stroke-width="8"/>
  <rect x="1000" y="230" width="260" height="160" rx="26" fill="#1A2438" stroke="#33445E" stroke-width="8"/>
  <path d="M1080 290H1180" stroke="#84D0FF" stroke-width="10" stroke-linecap="round"/>
  <path d="M1080 325H1150" stroke="#84D0FF" stroke-width="10" stroke-linecap="round" opacity="0.7"/>
  <rect x="280" y="480" width="300" height="170" rx="26" fill="#7FD0FF" fill-opacity="0.16" stroke="#9AE2FF" stroke-width="8"/>
  <rect x="640" y="500" width="200" height="150" rx="24" fill="#1B263A" stroke="#33445E" stroke-width="8"/>
  <rect x="890" y="490" width="240" height="160" rx="26" fill="#162033" stroke="#334560" stroke-width="8"/>
  <circle cx="1220" cy="565" r="62" fill="#1C2A42" stroke="#435A7D" stroke-width="8"/>
  <path d="M1220 520V568L1255 595" stroke="#A8E7FF" stroke-width="14" stroke-linecap="round" stroke-linejoin="round"/>
  <rect x="1140" y="705" width="230" height="70" rx="18" fill="#19263A" stroke="#334964" stroke-width="8"/>
</svg>
