<svg width="1600" height="900" viewBox="0 0 1600 900" fill="none" xmlns="http://www.w3.org/2000/svg">
  <rect width="1600" height="900" rx="40" fill="#0B1220"/>
  <rect x="60" y="60" width="1480" height="780" rx="34" fill="#111A2E" stroke="#27344C" stroke-width="4"/>
  <ellipse cx="800" cy="744" rx="580" ry="62" fill="#0A101A" opacity="0.45"/>
  <rect x="210" y="300" width="220" height="320" rx="26" fill="#7FD0FF" fill-opacity="0.16" stroke="#9AE2FF" stroke-width="8"/>
  <rect x="250" y="220" width="140" height="90" rx="18" fill="#E8F5FF" fill-opacity="0.28" stroke="#C9EDFF" stroke-width="8"/>
  <rect x="275" y="185" width="90" height="35" rx="10" fill="#58AEEF"/>
  <rect x="520" y="250" width="320" height="410" rx="28" fill="#182436" stroke="#334964" stroke-width="8"/>
  <rect x="565" y="295" width="230" height="64" rx="16" fill="#394D6C"/>
  <rect x="565" y="390" width="190" height="18" rx="9" fill="#9AE2FF"/>
  <rect x="565" y="430" width="140" height="18" rx="9" fill="#84D0FF" opacity="0.7"/>
  <rect x="565" y="470" width="210" height="18" rx="9" fill="#84D0FF" opacity="0.55"/>
  <rect x="940" y="300" width="180" height="230" rx="24" fill="#20314A" stroke="#445977" stroke-width="8"/>
  <rect x="970" y="250" width="120" height="60" rx="16" fill="#F0F7FF" fill-opacity="0.24" stroke="#C9EDFF" stroke-width="8"/>
  <circle cx="1240" cy="440" r="88" fill="#1B263A" stroke="#3D567B" stroke-width="8"/>
  <path d="M1200 440H1280" stroke="#A8E7FF" stroke-width="14" stroke-linecap="round"/>
  <path d="M1240 400V480" stroke="#A8E7FF" stroke-width="14" stroke-linecap="round"/>
  <rect x="1120" y="590" width="220" height="90" rx="20" fill="#182436" stroke="#334964" stroke-width="8"/>
</svg>
